<?xml version="1.0" standalone="no"?><!DOCTYPE svg PUBLIC "-//W3C//DTD SVG 1.1//EN" "http://www.w3.org/Graphics/SVG/1.1/DTD/svg11.dtd"><svg t="1591030192554" class="icon" viewBox="0 0 1024 1024" version="1.1" xmlns="http://www.w3.org/2000/svg" p-id="12004" xmlns:xlink="http://www.w3.org/1999/xlink" width="200" height="200"><defs><style type="text/css"></style></defs><path d="M501.76 285.44a22.186667 22.186667 0 0 1-25.173333-22.186667 186.453333 186.453333 0 0 1 42.666666-111.36A205.653333 205.653333 0 0 1 624.64 85.333333a21.76 21.76 0 0 1 26.88 21.76 198.826667 198.826667 0 0 1-42.666667 112.213334 173.653333 173.653333 0 0 1-107.093333 66.133333z m231.253333 248.32c0-116.053333 85.333333-142.08 85.333334-167.253333s-73.813333-81.493333-151.893334-81.493334-108.373333 36.693333-161.28 36.693334-96-36.693333-161.706666-36.693334a220.16 220.16 0 0 0-177.493334 107.946667A283.306667 283.306667 0 0 0 128 544C128 731.306667 262.4 938.666667 361.386667 938.666667c55.466667 0 69.546667-36.266667 145.92-36.266667S597.333333 938.666667 649.386667 938.666667c107.52 0 197.12-213.333333 197.12-216.32a21.76 21.76 0 0 0-12.8-19.626667 189.44 189.44 0 0 1-100.693334-168.96z" p-id="12005"></path></svg>