<?xml version="1.0" standalone="no"?><!DOCTYPE svg PUBLIC "-//W3C//DTD SVG 1.1//EN" "http://www.w3.org/Graphics/SVG/1.1/DTD/svg11.dtd"><svg t="1676733028813" class="icon" viewBox="0 0 1024 1024" version="1.1" xmlns="http://www.w3.org/2000/svg" p-id="2409" xmlns:xlink="http://www.w3.org/1999/xlink" width="200" height="200"><path d="M968.2944 407.9616l-86.2208-38.0928V66.56A66.56 66.56 0 0 0 815.5136 0H208.4864a66.56 66.56 0 0 0-66.56 66.56v303.3088l-86.2208 38.0928A25.6 25.6 0 0 0 40.96 431.3088v444.2112A148.6848 148.6848 0 0 0 189.0304 1024h645.9392A148.6848 148.6848 0 0 0 983.04 875.52V431.3088a25.6 25.6 0 0 0-14.7456-23.3472zM208.4864 51.2h607.0272a15.36 15.36 0 0 1 15.36 15.36v318.2592L512 634.88 193.1264 384.8192V66.56a15.36 15.36 0 0 1 15.36-15.36z m723.7632 824.32a97.28 97.28 0 0 1-97.28 97.28H189.0304a97.28 97.28 0 0 1-97.28-97.28V448.1024l63.2832-28.0576 341.1968 267.6736a25.1904 25.1904 0 0 0 31.5392 0l341.1968-267.6736 63.2832 28.0576z" fill="#ffffff" p-id="2410"></path><path d="M358.4 207.4624h307.2a25.6 25.6 0 0 0 0-51.2h-307.2a25.6 25.6 0 0 0 0 51.2zM358.4 350.8224h307.2a25.6 25.6 0 0 0 0-51.2h-307.2a25.6 25.6 0 0 0 0 51.2z" fill="#ffffff" p-id="2411"></path></svg>