<?xml version="1.0" standalone="no"?><!DOCTYPE svg PUBLIC "-//W3C//DTD SVG 1.1//EN" "http://www.w3.org/Graphics/SVG/1.1/DTD/svg11.dtd"><svg t="1591030273217" class="icon" viewBox="0 0 1024 1024" version="1.1" xmlns="http://www.w3.org/2000/svg" p-id="12268" xmlns:xlink="http://www.w3.org/1999/xlink" width="200" height="200"><defs><style type="text/css"></style></defs><path d="M514.56 965.12c-248.32 0-450.56-202.24-450.56-450.56s202.24-450.56 450.56-450.56c248.32 0 450.56 202.24 450.56 450.56S762.88 965.12 514.56 965.12zM514.56 112.64c-222.72 0-404.48 181.76-404.48 404.48s181.76 404.48 404.48 404.48 404.48-181.76 404.48-404.48S737.28 112.64 514.56 112.64z" p-id="12269"></path><path d="M499.2 929.28c-7.68 0-12.8-5.12-12.8-12.8l0-844.8c0-7.68 5.12-12.8 12.8-12.8s12.8 5.12 12.8 12.8l0 844.8C512 924.16 506.88 929.28 499.2 929.28z" p-id="12270"></path><path d="M634.88 921.6c-2.56 0-7.68 0-10.24-2.56-7.68-5.12-10.24-15.36-5.12-23.04 161.28-243.2 161.28-496.64 0-775.68-5.12-7.68-2.56-17.92 5.12-23.04 7.68-5.12 17.92-2.56 23.04 5.12 166.4 286.72 166.4 560.64 0 811.52C645.12 919.04 640 921.6 634.88 921.6z" p-id="12271"></path><path d="M396.8 921.6c-5.12 0-10.24-2.56-12.8-7.68-194.56-253.44-194.56-527.36 0-814.08 5.12-7.68 15.36-10.24 23.04-5.12 7.68 5.12 10.24 15.36 5.12 23.04-186.88 279.04-186.88 532.48 0 775.68 5.12 7.68 5.12 17.92-2.56 23.04C404.48 919.04 399.36 921.6 396.8 921.6z" p-id="12272"></path><path d="M916.48 486.4l-844.8 0c-7.68 0-12.8-5.12-12.8-12.8s5.12-12.8 12.8-12.8l844.8 0c7.68 0 12.8 5.12 12.8 12.8S924.16 486.4 916.48 486.4z" p-id="12273"></path><path d="M512 368.64c-107.52 0-207.36-43.52-322.56-130.56-7.68-5.12-7.68-15.36-2.56-23.04 5.12-7.68 15.36-7.68 23.04-2.56 212.48 161.28 368.64 163.84 619.52 10.24 7.68-5.12 17.92-2.56 23.04 5.12 5.12 7.68 2.56 17.92-5.12 23.04C719.36 330.24 614.4 368.64 512 368.64z" p-id="12274"></path><path d="M202.24 806.4c-5.12 0-10.24-2.56-12.8-7.68-5.12-7.68-5.12-17.92 2.56-23.04 222.72-168.96 394.24-171.52 655.36-12.8 7.68 5.12 10.24 15.36 5.12 23.04-5.12 7.68-15.36 10.24-23.04 5.12-250.88-153.6-407.04-148.48-619.52 10.24C209.92 806.4 204.8 806.4 202.24 806.4z" p-id="12275"></path></svg>